<svg width="37" height="37" viewBox="0 0 37 37" fill="none" xmlns="http://www.w3.org/2000/svg">
<path d="M24.375 0.875H4.79167C2.6375 0.875 0.894583 2.6375 0.894583 4.79167L0.875 32.2083C0.875 34.3625 2.61792 36.125 4.77208 36.125H32.2083C34.3625 36.125 36.125 34.3625 36.125 32.2083V12.625L24.375 0.875ZM4.79167 32.2083V4.79167H22.4167V14.5833H32.2083V32.2083H4.79167ZM12.625 10.6667C12.625 11.7438 11.7438 12.625 10.6667 12.625C9.58958 12.625 8.70833 11.7438 8.70833 10.6667C8.70833 9.58958 9.58958 8.70833 10.6667 8.70833C11.7438 8.70833 12.625 9.58958 12.625 10.6667ZM12.625 18.5C12.625 19.5771 11.7438 20.4583 10.6667 20.4583C9.58958 20.4583 8.70833 19.5771 8.70833 18.5C8.70833 17.4229 9.58958 16.5417 10.6667 16.5417C11.7438 16.5417 12.625 17.4229 12.625 18.5ZM12.625 26.3333C12.625 27.4104 11.7438 28.2917 10.6667 28.2917C9.58958 28.2917 8.70833 27.4104 8.70833 26.3333C8.70833 25.2563 9.58958 24.375 10.6667 24.375C11.7438 24.375 12.625 25.2563 12.625 26.3333Z" fill="black"/>
</svg>
