<svg width="137" height="109" viewBox="0 0 137 109" fill="none" xmlns="http://www.w3.org/2000/svg">
<path d="M112.828 0L100.764 12.0902L104.786 16.1203L116.86 4.03008L112.828 0ZM93.7549 20.2172C93.5527 20.2217 93.3516 20.2478 93.155 20.2951L13.53 40.2451C12.9153 40.399 12.3694 40.7542 11.979 41.2543C11.5885 41.7545 11.376 42.371 11.375 43.0061H2.84375C2.08956 43.0061 1.36629 43.3064 0.833 43.8409C0.299709 44.3753 7.54073e-05 45.1002 0 45.8561V62.9561C7.54073e-05 63.7119 0.299709 64.4368 0.833 64.9712C1.36629 65.5057 2.08956 65.806 2.84375 65.8061H11.375C11.3735 66.443 11.5849 67.0621 11.9755 67.5645C12.3661 68.067 12.9134 68.4238 13.53 68.5781L25.5938 71.5951V80.0561C25.594 80.7152 25.8221 81.3538 26.2394 81.8633C26.6566 82.3728 27.2371 82.7216 27.8821 82.8504L56.3196 88.5504C56.732 88.6326 57.1574 88.6222 57.5653 88.5199C57.9731 88.4176 58.3533 88.2259 58.6784 87.9587C59.0035 87.6914 59.2654 87.3553 59.4453 86.9744C59.6252 86.5935 59.7186 86.1774 59.7188 85.7561V80.1451L93.155 88.5281C93.5748 88.6331 94.0129 88.6407 94.4361 88.5503C94.8592 88.46 95.2562 88.2741 95.5968 88.0068C95.9375 87.7395 96.2128 87.3978 96.4018 87.0078C96.5908 86.6177 96.6885 86.1896 96.6875 85.7561V72.3744C103.604 69.074 108.092 62.0869 108.062 54.3393C108.033 46.645 103.549 39.7253 96.6875 36.4488V23.0561C96.6862 22.6751 96.6087 22.2983 96.4595 21.9479C96.3104 21.5975 96.0927 21.2806 95.8194 21.016C95.546 20.7513 95.2224 20.5443 94.8678 20.4071C94.5132 20.2699 94.1348 20.2053 93.7549 20.2172ZM130.113 24.1359L114.272 30.515L116.394 35.8031L132.234 29.4352L130.113 24.1359ZM91 26.7188V82.1156L17.0625 63.5906V62.9561V45.8561V45.2437L91 26.7188ZM96.6875 43.0283C100.191 45.6628 102.357 49.8103 102.375 54.3504C102.393 58.9232 100.217 63.1005 96.6875 65.7615V43.0283ZM5.6875 48.7061H11.375V60.1061H5.6875V48.7061ZM119.438 51.5561V57.2561H136.5V51.5561H119.438ZM31.2812 73.0201L54.0312 78.7201V82.2826L31.2812 77.7293V73.0201ZM115.972 74.2113L113.739 79.4549L129.424 86.1791L131.657 80.9355L115.972 74.2113ZM104.786 92.7029L100.764 96.733L112.828 108.823L116.86 104.793L104.786 92.7029Z" fill="black"/>
</svg>
