<svg width="89" height="93" viewBox="0 0 89 93" fill="none" xmlns="http://www.w3.org/2000/svg">
<path d="M88.0978 13.8277H0.00146484V0H88.0978V13.8277ZM3.18591 10.6369H84.9138V3.19083H3.18591V10.6369Z" fill="black"/>
<path d="M12.3846 5.3186H9.2002V8.50943H12.3846V5.3186Z" fill="black"/>
<path d="M18.7526 5.3186H15.5686V8.50943H18.7526V5.3186Z" fill="black"/>
<path d="M25.121 5.3186H21.9365V8.50943H25.121V5.3186Z" fill="black"/>
<path d="M88.0958 73.8666H55.8296V70.6749H84.9114V42.3894H88.0958V73.8666Z" fill="black"/>
<path d="M32.2593 73.8667H0V53.5058L15.1789 38.2947L26.4936 49.6342L24.2418 51.8908L15.1789 42.808L3.18445 54.8282V70.675H32.2593V73.8667Z" fill="black"/>
<path d="M72.9184 46.2118L61.601 34.8704L63.8528 32.6143L72.9184 41.699L84.9129 29.6773V13.8278H3.18542V42.111H0.000976562V10.637H88.0973V30.9965L87.631 31.4657L72.9184 46.2118Z" fill="black"/>
<path d="M38.9563 34.8901L28.5974 45.2713C28.8294 46.4668 29.1978 47.613 29.6832 48.696L38.9563 39.4034L49.142 49.6134L59.5009 39.2314C59.2693 38.0363 58.9009 36.8892 58.4151 35.8062L49.1425 45.1001L38.9563 34.8901Z" fill="black"/>
<path d="M44.0504 26.47C35.3684 26.47 28.3049 33.5487 28.3049 42.2493C28.3049 50.9541 35.3684 58.0356 44.0504 58.0356C52.7309 58.0356 59.793 50.9531 59.793 42.2479C59.7935 33.5473 52.7309 26.47 44.0504 26.47ZM44.0504 54.8443C37.1238 54.8443 31.4889 49.1936 31.4889 42.2493C31.4889 35.3078 37.1238 29.6613 44.0504 29.6613C50.9742 29.6613 56.6091 35.3073 56.6091 42.2479C56.6091 49.1936 50.9747 54.8443 44.0504 54.8443Z" fill="black"/>
<path d="M44.0499 64.4178C31.8569 64.4178 21.9365 54.4724 21.9365 42.2494C21.9365 30.0297 31.8569 20.0894 44.0499 20.0894C56.2421 20.0894 66.1615 30.0292 66.1615 42.2494C66.1615 54.4729 56.2421 64.4178 44.0499 64.4178ZM44.0499 23.2802C33.6122 23.2802 25.121 31.7897 25.121 42.2489C25.121 52.7124 33.6122 61.226 44.0499 61.226C54.4863 61.226 62.9775 52.7124 62.9775 42.2489C62.9775 31.7897 54.4863 23.2802 44.0499 23.2802Z" fill="black"/>
<path d="M45.642 62.8223H42.458V72.2734H45.642V62.8223Z" fill="black"/>
<path d="M44.05 92.9998C42.5286 92.9998 41.098 92.4046 40.022 91.3226C38.9446 90.2442 38.3511 88.8106 38.3525 87.2873V70.6775H49.7424V87.2896C49.7424 88.8106 49.154 90.2424 48.0854 91.3207C46.9983 92.406 45.5664 92.9998 44.05 92.9998ZM41.5365 73.8688V87.2891C41.5365 87.9592 41.7978 88.5902 42.2743 89.0673C43.225 90.0233 44.8713 90.0234 45.8318 89.0655C46.2977 88.5949 46.558 87.962 46.558 87.2891V73.8688H41.5365Z" fill="black"/>
</svg>
