<svg width="105" height="88" viewBox="0 0 105 88" fill="none" xmlns="http://www.w3.org/2000/svg">
<path d="M75.5171 18.3646L48.0961 45.8185L50.1019 47.8125L77.5089 20.3587L75.5171 18.3646ZM34.6311 66.6862C32.7095 66.6862 32.7095 63.7653 34.6311 63.7653H41.3075C40.9568 63.4282 40.7885 62.9227 40.9007 62.4172L44.5896 45.6078C44.6317 45.2848 44.7439 45.0321 45.0244 44.7512L53.2437 36.5221H18.0803L3.43704 84.1556H98.1272L83.498 36.831L60.3129 60.0579C60.0884 60.2686 59.8219 60.4371 59.4993 60.4933L44.4213 63.7653H77.3546C79.2761 63.7653 79.2761 66.6862 77.3546 66.6862H34.6311ZM85.8404 34.4999L101.493 85.1947C101.774 86.1356 101.073 87.0765 100.091 87.0765H1.45936C0.421428 87.0765 -0.265851 86.0373 0.0988275 85.0824L15.6117 34.6263C15.794 34.0084 16.3831 33.6011 17.0003 33.6011H56.1611L73.4553 16.2862C72.8943 15.7245 72.9083 14.7977 73.4693 14.236L81.7307 5.96472C82.2917 5.403 83.2034 5.403 83.7785 5.95068L89.2908 0.431819C89.8518 -0.14394 90.7916 -0.14394 91.3526 0.431819L104.579 13.6602C105.14 14.236 105.14 15.1628 104.579 15.7386L99.0529 21.2574C99.4877 21.8332 99.4457 22.6617 98.9127 23.1813L90.6513 31.4526C90.1323 31.9722 89.3188 32.0143 88.7438 31.579L85.8404 34.4999ZM96.9911 19.1791L101.465 14.6994L90.3147 3.5353L85.8404 8.01498L96.9911 19.1791ZM45.5855 60.5214L44.5335 59.4681L44.239 60.8163L45.5855 60.5214ZM45.2769 56.0838L48.9657 59.7771L56.3154 58.1902C53.1736 55.0306 50.0317 51.885 46.8899 48.7394L45.2769 56.0838ZM59.2469 56.9685L86.6679 29.5287L84.6622 27.5206L57.2552 54.9744L59.2469 56.9685ZM95.8129 22.1421L82.7546 9.0682L76.5691 15.2752C80.9172 19.6285 85.2653 23.9958 89.6274 28.3491L95.8129 22.1421ZM82.6003 25.4563L79.5847 22.437L52.1637 49.8909L55.1793 52.9101L82.6003 25.4563Z" fill="black"/>
</svg>
