<svg width="92" height="71" viewBox="0 0 92 71" fill="none" xmlns="http://www.w3.org/2000/svg">
<path d="M75.2205 45.7831L70.8014 40.3236C69.4565 38.6953 68.6879 36.5881 68.6879 34.481V28.5426C68.6879 19.3476 63.2121 11.1105 54.8543 7.47087V7.18353C54.8543 3.25654 51.588 0 47.6492 0H43.6144C39.6756 0 36.4094 3.25654 36.4094 7.18353V7.47087C28.0515 11.1105 22.5757 19.2519 22.5757 28.5426V34.481C22.5757 36.5881 21.8071 38.6953 20.4622 40.3236L16.0431 45.7831C14.1218 48.1776 13.7375 51.3383 14.9864 54.1159C16.3313 56.8936 19.0212 58.6176 22.0953 58.6176H31.7981C32.6627 65.5138 38.5228 70.8775 45.6318 70.8775C52.7408 70.8775 58.6009 65.5138 59.3694 58.6176H69.0722C72.1464 58.6176 74.9323 56.8936 76.1812 54.1159C77.5261 51.3383 77.1419 48.0818 75.2205 45.7831ZM45.6318 65.1307C41.6931 65.1307 38.4268 62.3531 37.7543 58.6176H53.6054C52.8369 62.3531 49.5706 65.1307 45.6318 65.1307ZM70.9936 51.6257C70.8014 52.0088 70.3211 52.8708 69.0722 52.8708H22.1914C20.9425 52.8708 20.4622 52.0088 20.2701 51.6257C20.0779 51.2425 19.7897 50.2847 20.5583 49.3269L24.9774 43.8674C27.1869 41.1856 28.3397 37.8333 28.3397 34.3852V28.4468C28.3397 20.9759 33.1431 14.3671 40.2521 12.0683C41.4049 11.6852 42.2695 10.5358 42.2695 9.2907V6.99197C42.2695 6.22573 42.9419 5.55526 43.7105 5.55526H47.7453C48.5138 5.55526 49.1863 6.22573 49.1863 6.99197V9.2907C49.1863 10.5358 49.9548 11.5894 51.2037 12.0683C58.1206 14.4628 62.9239 21.0717 62.9239 28.5426V34.481C62.9239 37.9291 64.1728 41.2814 66.2863 43.9632L70.7054 49.4227C71.57 50.2847 71.1857 51.2425 70.9936 51.6257Z" fill="black"/>
<path d="M5.76403 28.9257C5.76403 25.0945 6.82077 21.4549 8.93425 18.2941C9.79885 16.9532 9.41459 15.2291 8.06964 14.2713C6.7247 13.4093 4.99549 13.7924 4.03482 15.1333C1.44101 19.2519 0 24.0409 0 28.9257C0 34.0979 1.53708 39.0785 4.51516 43.2928C5.09156 44.059 5.95617 44.5379 6.91684 44.5379C7.49324 44.5379 8.06964 44.3464 8.54998 44.059C9.89492 43.197 10.1831 41.3772 9.22245 40.0363C7.01291 36.7797 5.76403 32.9485 5.76403 28.9257Z" fill="black"/>
<path d="M15.6589 36.7798C17.0999 36.1093 17.6764 34.3853 17.0039 32.9486C16.4275 31.7034 16.1393 30.3625 16.1393 29.0216C16.1393 27.7764 16.3314 26.6271 16.8117 25.5735C17.3881 24.1368 16.7157 22.4127 15.2747 21.8381C13.8337 21.2634 12.1045 21.9338 11.5281 23.3705C10.7595 25.1904 10.3752 27.106 10.3752 29.0216C10.3752 31.3203 10.8556 33.4275 11.8163 35.5347C12.2966 36.5882 13.3533 37.1629 14.4101 37.1629C14.8904 37.0671 15.2747 36.9714 15.6589 36.7798Z" fill="black"/>
<path d="M87.1331 15.229C86.2685 13.8881 84.4432 13.505 83.0983 14.367C81.7533 15.229 81.3691 17.0489 82.2337 18.3898C84.3471 21.5506 85.4039 25.1902 85.4039 29.0214C85.4039 33.0442 84.155 36.8754 81.9455 40.132C81.0809 41.4729 81.3691 43.1969 82.6179 44.1547C83.0983 44.5379 83.6747 44.6336 84.2511 44.6336C85.1157 44.6336 86.0764 44.2505 86.6528 43.3885C89.6308 39.1742 91.1679 34.1936 91.1679 29.0214C91.264 24.0408 89.823 19.2518 87.1331 15.229Z" fill="black"/>
<path d="M75.9893 21.7421C74.5483 22.3168 73.7797 24.0408 74.4522 25.4775C74.9325 26.5311 75.1247 27.7762 75.1247 28.9256C75.1247 30.2665 74.8365 31.6075 74.2601 32.8526C73.5876 34.2893 74.164 36.0134 75.605 36.6838C75.9893 36.8754 76.4696 36.9712 76.8539 36.9712C77.9106 36.9712 78.9673 36.3965 79.4477 35.3429C80.4084 33.3315 80.8887 31.1286 80.8887 28.8298C80.8887 26.8184 80.5044 24.9028 79.7359 23.1788C79.1595 21.8379 77.4303 21.0716 75.9893 21.7421Z" fill="black"/>
</svg>
