<svg width="100" height="100" viewBox="0 0 100 100" fill="none" xmlns="http://www.w3.org/2000/svg">
<path d="M50.8453 15.6081L57.8625 0H64.0016L71.0328 15.6081H50.8453ZM47.2703 18.7297H27.3609L59.5312 60.0444C59.175 58.8426 47.5766 19.7567 47.2703 18.7297ZM60.9375 53.8012L71.35 18.7297H50.525L60.9375 53.8012ZM54.4312 0H42.1875C41.9686 5.73964e-05 41.7521 0.0460781 41.5521 0.135078C41.3521 0.224078 41.173 0.354071 41.0266 0.516628L27.4297 15.6081H47.4297L54.4312 0ZM74.6047 18.7297C74.2922 19.7567 62.7 58.8426 62.3453 60.0444L94.5141 18.7297H74.6047ZM94.4484 15.6081L80.8484 0.516628C80.702 0.354071 80.5229 0.224078 80.3229 0.135078C80.1229 0.0460781 79.9064 5.73964e-05 79.6875 0L67.4328 0L74.4453 15.6081H94.4484ZM95.3313 52.7554C93.9248 52.0146 92.3418 51.6738 90.7547 51.7701C89.1676 51.8664 87.6375 52.3962 86.3312 53.3017L61.6406 70.377C62.6496 72.9106 62.7531 75.7142 61.9337 78.3152C61.1143 80.9161 59.4221 83.1553 57.1425 84.655C54.8628 86.1548 52.1352 86.8235 49.4195 86.5483C46.7037 86.2731 44.1661 85.0709 42.2344 83.1444L27.9375 68.863C27.6815 68.5644 27.5478 68.1803 27.563 67.7875C27.5781 67.3947 27.7412 67.022 28.0194 66.7441C28.2977 66.4661 28.6707 66.3033 29.064 66.2881C29.4572 66.2729 29.8417 66.4065 30.1406 66.6622L44.4375 80.9436C45.819 82.3194 47.6211 83.1946 49.5576 83.4302C51.494 83.6657 53.4537 83.2481 55.1253 82.2437C56.797 81.2393 58.0847 79.7057 58.7839 77.8865C59.4831 76.0673 59.5536 74.0669 58.9844 72.2031C58.5617 70.8395 57.8168 69.5975 56.8125 68.582L41.3438 53.1456C40.3301 52.1282 39.1247 51.3217 37.7972 50.7725C36.4696 50.2233 35.0463 49.9423 33.6094 49.9459H15.625V84.2838H19.5469C20.5738 84.2799 21.5914 84.4793 22.5407 84.8704C23.4901 85.2615 24.3525 85.8367 25.0781 86.5626L32.3438 93.8359C35.9 97.3716 40.6177 99.5013 45.6242 99.8312C50.6308 100.161 55.5876 98.6691 59.5781 95.6309L96.5781 67.3802C97.6379 66.564 98.497 65.5168 99.0901 64.3186C99.6831 63.1203 99.9943 61.8025 100 60.4658C100.002 58.8766 99.5675 57.3174 98.7438 55.9578C97.92 54.5983 96.7385 53.4906 95.3281 52.7554H95.3313ZM10.9375 45.2635H1.5625C1.1481 45.2635 0.750671 45.428 0.457646 45.7207C0.16462 46.0134 0 46.4104 0 46.8243L0 87.4054C0 87.8194 0.16462 88.2164 0.457646 88.5091C0.750671 88.8018 1.1481 88.9662 1.5625 88.9662H10.9375C11.3519 88.9662 11.7493 88.8018 12.0424 88.5091C12.3354 88.2164 12.5 87.8194 12.5 87.4054V46.8243C12.5 46.4104 12.3354 46.0134 12.0424 45.7207C11.7493 45.428 11.3519 45.2635 10.9375 45.2635Z" fill="black"/>
</svg>
