<svg width="131" height="131" viewBox="0 0 131 131" fill="none" xmlns="http://www.w3.org/2000/svg">
<path d="M50.046 55.7568C50.24 55.5655 50.4525 55.3941 50.6805 55.2451L51.008 55.0609L51.397 54.8562L51.8268 54.7334H52.1748C52.7018 54.6286 53.2443 54.6286 53.7713 54.7334H54.1193L54.5287 54.8562L54.9176 55.0609L55.2655 55.2656C55.4935 55.4146 55.7061 55.586 55.9001 55.7773L72.275 72.1522C73.0432 72.9204 73.4747 73.9622 73.4747 75.0486C73.4747 76.1349 73.0432 77.1767 72.275 77.9449C71.5069 78.713 70.465 79.1446 69.3787 79.1446C68.2924 79.1446 67.2505 78.713 66.4824 77.9449L57.0873 68.5498V99.6008C57.0873 100.687 56.656 101.728 55.8882 102.495C55.1205 103.263 54.0792 103.695 52.9935 103.695C51.9078 103.695 50.8665 103.263 50.0988 102.495C49.3311 101.728 48.8998 100.687 48.8998 99.6008V68.5498L39.5046 77.9449C38.7365 78.713 37.6946 79.1446 36.6083 79.1446C35.522 79.1446 34.4801 78.713 33.712 77.9449C32.9438 77.1767 32.5123 76.1349 32.5123 75.0486C32.5123 73.9622 32.9438 72.9204 33.712 72.1522L50.046 55.7568Z" fill="black"/>
<path d="M3.19312 69.5936L65.0291 7.85999C70.2318 3.13963 76.9062 0.362834 83.9217 0L119.926 0C122.856 0.0214288 125.661 1.19499 127.733 3.26706C129.805 5.33913 130.978 8.1433 131 11.0736V47.078C130.66 54.0865 127.879 60.7554 123.14 65.9297L61.4061 127.807C59.3051 129.872 56.4715 131.02 53.5257 131C50.5941 130.978 47.782 129.835 45.6657 127.807L3.19312 85.2522C1.14943 83.1789 0.00259399 80.3853 0 77.4741C0.0146942 74.535 1.15781 71.7139 3.19312 69.5936ZM9.00623 79.48L51.3765 121.932C51.9633 122.475 52.7266 122.788 53.5257 122.812C54.2854 122.82 55.0186 122.534 55.5726 122.014L117.409 60.0552C120.559 56.4232 122.454 51.8723 122.812 47.078V11.0736C122.797 10.3131 122.487 9.58804 121.95 9.05016C121.412 8.51228 120.687 8.20317 119.926 8.18748H83.9217C79.08 8.54914 74.4849 10.4661 70.8217 13.6526L9.06764 75.3249C8.54404 75.8833 8.23263 76.6075 8.18748 77.3717C8.17843 77.7597 8.2461 78.1457 8.3866 78.5075C8.52711 78.8693 8.73768 79.1998 9.00623 79.48Z" fill="black"/>
<path d="M98.2498 16.375C101.488 16.375 104.654 17.3354 107.347 19.1347C110.04 20.934 112.139 23.4914 113.378 26.4835C114.618 29.4757 114.942 32.7681 114.31 35.9446C113.678 39.121 112.119 42.0387 109.829 44.3288C107.539 46.6189 104.621 48.1785 101.444 48.8103C98.2679 49.4421 94.9755 49.1178 91.9833 47.8785C88.9912 46.6391 86.4338 44.5403 84.6345 41.8474C82.8352 39.1546 81.8748 35.9886 81.8748 32.75C81.8748 28.4071 83.6 24.242 86.6709 21.1711C89.7418 18.1002 93.9069 16.375 98.2498 16.375ZM98.2498 40.9375C99.8691 40.9375 101.452 40.4573 102.799 39.5576C104.145 38.658 105.194 37.3792 105.814 35.8832C106.434 34.3871 106.596 32.7409 106.28 31.1527C105.964 29.5645 105.184 28.1056 104.039 26.9605C102.894 25.8155 101.435 25.0357 99.8471 24.7198C98.2589 24.4039 96.6126 24.566 95.1166 25.1857C93.6205 25.8054 92.3418 26.8548 91.4421 28.2012C90.5425 29.5477 90.0623 31.1306 90.0623 32.75C90.0623 34.9214 90.9249 37.0039 92.4604 38.5394C93.9958 40.0748 96.0783 40.9375 98.2498 40.9375Z" fill="black"/>
</svg>
