<svg width="85" height="85" viewBox="0 0 85 85" fill="none" xmlns="http://www.w3.org/2000/svg">
<path d="M82.2611 0.0723213L70.8333 2.14833C70.7389 1.58215 70.4556 1.01596 69.9833 0.544142C69.4167 0.0723213 68.7556 -0.116407 68.0944 0.0723213L47.3167 3.84688L44.2 0.73287C43.6333 0.166685 42.7833 -0.116407 42.0278 0.0723213L1.88889 9.50873C0.755556 9.79182 0 10.7355 0 11.8678V73.2045C0 74.3369 0.85 75.2805 1.98333 75.5636L53.9278 85C54.0222 85 54.2111 85 54.3056 85C54.8722 85 55.3444 84.8113 55.8167 84.4338C56.2889 84.0564 56.5722 83.4902 56.6667 82.8296L68.0944 85C68.1889 85 68.3778 85 68.4722 85C69.0389 85 69.5111 84.8113 69.9833 84.4338C70.4556 84.0564 70.7389 83.4902 70.8333 82.8296L82.2611 85C82.3556 85 82.5444 85 82.6389 85C83.2056 85 83.6778 84.8113 84.15 84.4338C84.7167 83.962 85 83.3014 85 82.6409V2.43142C85 1.77087 84.7167 1.11033 84.15 0.638506C83.5833 0.166685 82.9222 -0.0220428 82.2611 0.0723213ZM42.5 5.73417L51 14.2269H42.5V5.73417ZM51.9444 79.81L4.72222 71.2228V13.7551L37.7778 6.01726V16.6804C37.7778 18.0015 38.8167 19.0395 40.1389 19.0395H51.9444V79.81ZM66.1111 79.81L56.6667 78.1114V14.2269C56.6667 13.5664 56.3833 13.0002 56.0056 12.5284L51.3778 7.90454L66.1111 5.26235V79.81ZM80.2778 79.81L70.8333 78.1114V6.9609L80.2778 5.26235V79.81Z" fill="black"/>
</svg>
